<?xml version="1.0" encoding="UTF-8"?>
<!DOCTYPE svg PUBLIC "-//W3C//DTD SVG 1.1//EN" "http://www.w3.org/Graphics/SVG/1.1/DTD/svg11.dtd">
<svg xmlns="http://www.w3.org/2000/svg" version="1.1" width="419px" height="336px" style="shape-rendering:geometricPrecision; text-rendering:geometricPrecision; image-rendering:optimizeQuality; fill-rule:evenodd; clip-rule:evenodd" xmlns:xlink="http://www.w3.org/1999/xlink">
<g><path style="opacity:1" fill="#08070b" d="M -0.5,-0.5 C 139.167,-0.5 278.833,-0.5 418.5,-0.5C 418.5,111.5 418.5,223.5 418.5,335.5C 278.833,335.5 139.167,335.5 -0.5,335.5C -0.5,223.5 -0.5,111.5 -0.5,-0.5 Z"/></g>
<g><path style="opacity:1" fill="#58575b" d="M 269.5,85.5 C 221.167,85.5 172.833,85.5 124.5,85.5C 124.5,133.5 124.5,181.5 124.5,229.5C 123.501,181.336 123.168,133.003 123.5,84.5C 172.336,84.1678 221.003,84.5012 269.5,85.5 Z"/></g>
<g><path style="opacity:1" fill="#fcfcfc" d="M 269.5,85.5 C 276.465,91.964 283.298,98.6307 290,105.5C 290.5,154.166 290.667,202.832 290.5,251.5C 242.166,251.667 193.832,251.5 145.5,251C 138.297,243.965 131.297,236.798 124.5,229.5C 124.5,181.5 124.5,133.5 124.5,85.5C 172.833,85.5 221.167,85.5 269.5,85.5 Z"/></g>
<g><path style="opacity:1" fill="#0a090d" d="M 135.5,96.5 C 176.167,96.5 216.833,96.5 257.5,96.5C 257.5,137.167 257.5,177.833 257.5,218.5C 216.833,218.5 176.167,218.5 135.5,218.5C 135.5,177.833 135.5,137.167 135.5,96.5 Z"/></g>
<g><path style="opacity:1" fill="#c3c3c4" d="M 150.5,103.5 C 170.66,102.503 190.993,102.17 211.5,102.5C 211.827,112.348 211.494,122.014 210.5,131.5C 210.5,122.167 210.5,112.833 210.5,103.5C 190.5,103.5 170.5,103.5 150.5,103.5 Z"/></g>
<g><path style="opacity:1" fill="#fdfdfd" d="M 150.5,103.5 C 170.5,103.5 190.5,103.5 210.5,103.5C 210.5,112.833 210.5,122.167 210.5,131.5C 205.833,131.5 201.167,131.5 196.5,131.5C 196.5,126.833 196.5,122.167 196.5,117.5C 193.833,117.5 191.167,117.5 188.5,117.5C 188.5,131.833 188.5,146.167 188.5,160.5C 183.5,160.5 178.5,160.5 173.5,160.5C 173.5,146.167 173.5,131.833 173.5,117.5C 170.833,117.5 168.167,117.5 165.5,117.5C 165.5,123.833 165.5,130.167 165.5,136.5C 160.5,136.5 155.5,136.5 150.5,136.5C 150.5,125.5 150.5,114.5 150.5,103.5 Z"/></g>
<g><path style="opacity:1" fill="#fcfcfc" d="M 196.5,139.5 C 201.167,139.5 205.833,139.5 210.5,139.5C 210.5,146.5 210.5,153.5 210.5,160.5C 219.833,160.5 229.167,160.5 238.5,160.5C 238.5,165.167 238.5,169.833 238.5,174.5C 236.167,174.5 233.833,174.5 231.5,174.5C 231.263,175.791 231.596,176.791 232.5,177.5C 233.012,182.085 235.012,185.751 238.5,188.5C 238.5,193.5 238.5,198.5 238.5,203.5C 237.5,203.5 236.5,203.5 235.5,203.5C 230.4,201.914 226.233,198.914 223,194.5C 219.213,188.732 217.38,182.398 217.5,175.5C 215.5,175.5 213.5,175.5 211.5,175.5C 211.5,182.5 211.5,189.5 211.5,196.5C 206.5,196.5 201.5,196.5 196.5,196.5C 196.5,189.5 196.5,182.5 196.5,175.5C 195.081,174.549 193.415,174.216 191.5,174.5C 191.5,169.833 191.5,165.167 191.5,160.5C 193.415,160.784 195.081,160.451 196.5,159.5C 196.5,152.833 196.5,146.167 196.5,139.5 Z"/></g>
<g><path style="opacity:1" fill="#b2b2b3" d="M 196.5,139.5 C 201.305,138.513 206.305,138.179 211.5,138.5C 211.5,145.5 211.5,152.5 211.5,159.5C 220.682,159.173 229.682,159.507 238.5,160.5C 229.167,160.5 219.833,160.5 210.5,160.5C 210.5,153.5 210.5,146.5 210.5,139.5C 205.833,139.5 201.167,139.5 196.5,139.5 Z"/></g>
<g><path style="opacity:1" fill="#f8f8f8" d="M 223.5,138.5 C 228.5,138.5 233.5,138.5 238.5,138.5C 238.5,143.5 238.5,148.5 238.5,153.5C 233.5,153.5 228.5,153.5 223.5,153.5C 223.5,148.5 223.5,143.5 223.5,138.5 Z"/></g>
<g><path style="opacity:1" fill="#a3a3a5" d="M 196.5,159.5 C 195.081,160.451 193.415,160.784 191.5,160.5C 191.5,165.167 191.5,169.833 191.5,174.5C 193.415,174.216 195.081,174.549 196.5,175.5C 194.5,175.5 192.5,175.5 190.5,175.5C 190.5,170.167 190.5,164.833 190.5,159.5C 192.5,159.5 194.5,159.5 196.5,159.5 Z"/></g>
<g><path style="opacity:1" fill="#908f91" d="M 238.5,174.5 C 236.156,174.94 234.156,175.94 232.5,177.5C 231.596,176.791 231.263,175.791 231.5,174.5C 233.833,174.5 236.167,174.5 238.5,174.5 Z"/></g>
<g><path style="opacity:1" fill="#a8a8a9" d="M 238.5,188.5 C 239.488,193.64 239.821,198.974 239.5,204.5C 237.901,204.768 236.568,204.434 235.5,203.5C 236.5,203.5 237.5,203.5 238.5,203.5C 238.5,198.5 238.5,193.5 238.5,188.5 Z"/></g>
</svg>
